<svg width="70" height="70" viewBox="0 0 70 70" fill="none" xmlns="http://www.w3.org/2000/svg">
<path d="M60.375 33.4687L60.9679 32.8672C62.5708 31.2315 64.009 29.4423 65.2619 27.5253C65.4971 27.1681 65.6225 26.7498 65.6225 26.3222C65.6225 25.8945 65.4971 25.4762 65.2619 25.119C61.9603 20.1085 57.4664 15.996 52.1835 13.1505C46.9006 10.3049 40.994 8.81531 34.9935 8.81531C28.993 8.81531 23.0863 10.3049 17.8034 13.1505C12.5206 15.996 8.02671 20.1085 4.72505 25.119C4.49257 25.4748 4.36877 25.8906 4.36877 26.3156C4.36877 26.7406 4.49257 27.1564 4.72505 27.5122C7.63656 31.928 11.4792 35.6532 15.9834 38.4262C20.4875 41.1992 25.544 42.9528 30.7979 43.564C30.4609 45.9453 30.6183 48.3705 31.2604 50.6882C31.9025 53.0059 33.0154 55.1663 34.5297 57.0347C36.0439 58.9031 37.9271 60.4394 40.0615 61.5476C42.196 62.6557 44.536 63.3121 46.9354 63.4756C49.3348 63.6391 51.7422 63.3063 54.0072 62.4979C56.2723 61.6896 58.3464 60.423 60.1002 58.7773C61.854 57.1316 63.2497 55.1421 64.2002 52.933C65.1508 50.7238 65.6358 48.3424 65.625 45.9375C65.6242 43.6143 65.1593 41.3147 64.2578 39.1735C63.3562 37.0324 62.0362 35.0929 60.375 33.4687ZM9.21598 26.3134C12.1753 22.2487 16.0537 18.9413 20.5346 16.6609C25.0156 14.3805 29.9722 13.1918 35 13.1918C40.0279 13.1918 44.9845 14.3805 49.4655 16.6609C53.9464 18.9413 57.8248 22.2487 60.7841 26.3134C59.8964 27.5447 58.9173 28.7073 57.855 29.7915L56.8619 30.8C53.4864 28.805 49.5242 28.0405 45.6488 28.6365C46.1313 26.5036 45.9635 24.2751 45.1668 22.2385C44.3701 20.202 42.9813 18.451 41.1796 17.2117C39.3779 15.9723 37.2461 15.3015 35.0593 15.2858C32.8726 15.2701 30.7313 15.9103 28.912 17.1237C27.0928 18.3371 25.679 20.068 24.8532 22.0929C24.0274 24.1178 23.8276 26.3437 24.2795 28.4833C24.7314 30.6229 25.8143 32.5779 27.3884 34.096C28.9625 35.614 30.9555 36.6253 33.11 36.9994C32.6711 37.7245 32.2851 38.4804 31.955 39.2612C27.464 38.8367 23.1143 37.4629 19.1942 35.2307C15.2741 32.9986 11.8729 29.959 9.21598 26.3134ZM40.016 30.4434C38.9263 31.0118 37.8998 31.6937 36.9535 32.4778C36.3248 32.6947 35.665 32.8077 35 32.8125C33.7021 32.8125 32.4333 32.4276 31.3541 31.7065C30.2749 30.9854 29.4338 29.9605 28.9371 28.7613C28.4404 27.5622 28.3104 26.2427 28.5636 24.9697C28.8169 23.6967 29.4419 22.5274 30.3597 21.6096C31.2774 20.6918 32.4468 20.0668 33.7198 19.8136C34.9928 19.5604 36.3123 19.6903 37.5114 20.187C38.7105 20.6837 39.7355 21.5248 40.4566 22.604C41.1777 23.6832 41.5625 24.952 41.5625 26.25C41.5615 27.7871 41.0132 29.2737 40.016 30.4434ZM48.125 59.0625C45.5292 59.0625 42.9916 58.2927 40.8332 56.8505C38.6748 55.4083 36.9925 53.3585 35.9991 50.9602C35.0057 48.5619 34.7458 45.9229 35.2522 43.3769C35.7587 40.8309 37.0087 38.4923 38.8443 36.6567C40.6798 34.8211 43.0185 33.5711 45.5645 33.0647C48.1105 32.5582 50.7495 32.8182 53.1478 33.8116C55.546 34.805 57.5959 36.4872 59.0381 38.6456C60.4803 40.804 61.25 43.3416 61.25 45.9375C61.2466 49.4174 59.8626 52.7538 57.402 55.2144C54.9413 57.6751 51.6049 59.059 48.125 59.0625Z" fill="#FF65FF"/>
<path d="M50.3125 44.2969H49.7656V41.0156H52.5C52.9351 41.0156 53.3524 40.8428 53.6601 40.5351C53.9678 40.2274 54.1406 39.8101 54.1406 39.375C54.1406 38.9399 53.9678 38.5226 53.6601 38.2149C53.3524 37.9072 52.9351 37.7344 52.5 37.7344H49.7656V37.1875C49.7656 36.7524 49.5928 36.3351 49.2851 36.0274C48.9774 35.7197 48.5601 35.5469 48.125 35.5469C47.6899 35.5469 47.2726 35.7197 46.9649 36.0274C46.6572 36.3351 46.4844 36.7524 46.4844 37.1875V37.7344H45.9375C44.6321 37.7344 43.3802 38.2529 42.4572 39.176C41.5342 40.099 41.0156 41.3509 41.0156 42.6562C41.0156 43.9616 41.5342 45.2135 42.4572 46.1365C43.3802 47.0596 44.6321 47.5781 45.9375 47.5781H46.4844V50.8594H43.75C43.3149 50.8594 42.8976 51.0322 42.5899 51.3399C42.2822 51.6476 42.1094 52.0649 42.1094 52.5C42.1094 52.9351 42.2822 53.3524 42.5899 53.6601C42.8976 53.9678 43.3149 54.1406 43.75 54.1406H46.4844V54.6875C46.4844 55.1226 46.6572 55.5399 46.9649 55.8476C47.2726 56.1553 47.6899 56.3281 48.125 56.3281C48.5601 56.3281 48.9774 56.1553 49.2851 55.8476C49.5928 55.5399 49.7656 55.1226 49.7656 54.6875V54.1406H50.3125C51.6179 54.1406 52.8698 53.6221 53.7928 52.699C54.7158 51.776 55.2344 50.5241 55.2344 49.2188C55.2344 47.9134 54.7158 46.6615 53.7928 45.7385C52.8698 44.8154 51.6179 44.2969 50.3125 44.2969ZM45.9375 44.2969C45.5024 44.2969 45.0851 44.124 44.7774 43.8163C44.4697 43.5087 44.2969 43.0914 44.2969 42.6562C44.2969 42.2211 44.4697 41.8038 44.7774 41.4962C45.0851 41.1885 45.5024 41.0156 45.9375 41.0156H46.4844V44.2969H45.9375ZM50.3125 50.8594H49.7656V47.5781H50.3125C50.7476 47.5781 51.1649 47.751 51.4726 48.0587C51.7803 48.3663 51.9531 48.7836 51.9531 49.2188C51.9531 49.6539 51.7803 50.0712 51.4726 50.3788C51.1649 50.6865 50.7476 50.8594 50.3125 50.8594Z" fill="#FF65FF"/>
</svg>
