<svg width="70" height="70" viewBox="0 0 70 70" fill="none" xmlns="http://www.w3.org/2000/svg">
<path d="M54.6875 15.3125H52.5V10.9375C52.5 9.19702 51.8086 7.52782 50.5779 6.29711C49.3472 5.0664 47.678 4.375 45.9375 4.375H24.0625C22.322 4.375 20.6528 5.0664 19.4221 6.29711C18.1914 7.52782 17.5 9.19702 17.5 10.9375V15.3125H15.3125C13.572 15.3125 11.9028 16.0039 10.6721 17.2346C9.4414 18.4653 8.75 20.1345 8.75 21.875V48.125C8.75 49.8655 9.4414 51.5347 10.6721 52.7654C11.9028 53.9961 13.572 54.6875 15.3125 54.6875H32.8125V61.25H21.875C21.2948 61.25 20.7384 61.4805 20.3282 61.8907C19.918 62.3009 19.6875 62.8573 19.6875 63.4375C19.6875 64.0177 19.918 64.5741 20.3282 64.9843C20.7384 65.3945 21.2948 65.625 21.875 65.625H48.125C48.7052 65.625 49.2616 65.3945 49.6718 64.9843C50.082 64.5741 50.3125 64.0177 50.3125 63.4375C50.3125 62.8573 50.082 62.3009 49.6718 61.8907C49.2616 61.4805 48.7052 61.25 48.125 61.25H37.1875V54.6875H54.6875C56.428 54.6875 58.0972 53.9961 59.3279 52.7654C60.5586 51.5347 61.25 49.8655 61.25 48.125V21.875C61.25 20.1345 60.5586 18.4653 59.3279 17.2346C58.0972 16.0039 56.428 15.3125 54.6875 15.3125ZM54.6875 19.6875C55.2677 19.6875 55.8241 19.918 56.2343 20.3282C56.6445 20.7384 56.875 21.2948 56.875 21.875V41.5625H52.5V19.6875H54.6875ZM21.875 10.9375C21.875 10.3573 22.1055 9.80094 22.5157 9.3907C22.9259 8.98047 23.4823 8.75 24.0625 8.75H45.9375C46.5177 8.75 47.0741 8.98047 47.4843 9.3907C47.8945 9.80094 48.125 10.3573 48.125 10.9375V41.5625H21.875V10.9375ZM13.125 21.875C13.125 21.2948 13.3555 20.7384 13.7657 20.3282C14.1759 19.918 14.7323 19.6875 15.3125 19.6875H17.5V41.5625H13.125V21.875ZM56.875 48.125C56.875 48.7052 56.6445 49.2616 56.2343 49.6718C55.8241 50.082 55.2677 50.3125 54.6875 50.3125H15.3125C14.7323 50.3125 14.1759 50.082 13.7657 49.6718C13.3555 49.2616 13.125 48.7052 13.125 48.125V45.9375H56.875V48.125Z" fill="#FF65FF"/>
<path d="M28.4375 17.5H41.5625C42.1427 17.5 42.6991 17.2695 43.1093 16.8593C43.5195 16.4491 43.75 15.8927 43.75 15.3125C43.75 14.7323 43.5195 14.1759 43.1093 13.7657C42.6991 13.3555 42.1427 13.125 41.5625 13.125H28.4375C27.8573 13.125 27.3009 13.3555 26.8907 13.7657C26.4805 14.1759 26.25 14.7323 26.25 15.3125C26.25 15.8927 26.4805 16.4491 26.8907 16.8593C27.3009 17.2695 27.8573 17.5 28.4375 17.5Z" fill="#FF65FF"/>
<path d="M28.4375 26.25H41.5625C42.1427 26.25 42.6991 26.0195 43.1093 25.6093C43.5195 25.1991 43.75 24.6427 43.75 24.0625C43.75 23.4823 43.5195 22.9259 43.1093 22.5157C42.6991 22.1055 42.1427 21.875 41.5625 21.875H28.4375C27.8573 21.875 27.3009 22.1055 26.8907 22.5157C26.4805 22.9259 26.25 23.4823 26.25 24.0625C26.25 24.6427 26.4805 25.1991 26.8907 25.6093C27.3009 26.0195 27.8573 26.25 28.4375 26.25Z" fill="#FF65FF"/>
<path d="M28.4375 35H41.5625C42.1427 35 42.6991 34.7695 43.1093 34.3593C43.5195 33.9491 43.75 33.3927 43.75 32.8125C43.75 32.2323 43.5195 31.6759 43.1093 31.2657C42.6991 30.8555 42.1427 30.625 41.5625 30.625H28.4375C27.8573 30.625 27.3009 30.8555 26.8907 31.2657C26.4805 31.6759 26.25 32.2323 26.25 32.8125C26.25 33.3927 26.4805 33.9491 26.8907 34.3593C27.3009 34.7695 27.8573 35 28.4375 35Z" fill="#FF65FF"/>
</svg>
