<svg width="70" height="70" viewBox="0 0 70 70" fill="none" xmlns="http://www.w3.org/2000/svg">
<path d="M65.4063 51.8656C65.0825 49.7142 64.3297 47.6498 63.1926 45.795C62.0555 43.9401 60.5573 42.3327 58.7869 41.0681C59.7841 40.038 60.5129 38.7786 60.9091 37.4008C61.3054 36.023 61.3571 34.5689 61.0596 33.1664C60.762 31.764 60.1245 30.4561 59.2029 29.3578C58.2813 28.2596 57.104 27.4046 55.7745 26.868C54.445 26.3315 53.004 26.1299 51.5783 26.2809C50.1526 26.4319 48.7859 26.931 47.5983 27.7341C46.4107 28.5373 45.4386 29.6199 44.7676 30.8869C44.0966 32.1539 43.7472 33.5663 43.7501 35C43.7644 35.3165 43.7965 35.632 43.8463 35.945C42.6582 35.0392 41.35 34.303 39.9591 33.7575C42.1494 32.6433 43.9007 30.824 44.9306 28.5928C45.9605 26.3617 46.2091 23.8487 45.6362 21.459C45.0633 19.0693 43.7024 16.9422 41.7728 15.4205C39.8432 13.8988 37.4575 13.0713 35.0001 13.0713C32.5427 13.0713 30.1569 13.8988 28.2273 15.4205C26.2977 16.9422 24.9368 19.0693 24.3639 21.459C23.791 23.8487 24.0396 26.3617 25.0695 28.5928C26.0994 30.824 27.8507 32.6433 30.041 33.7575C28.6502 34.303 27.3419 35.0392 26.1538 35.945C26.2036 35.632 26.2358 35.3165 26.2501 35C26.2549 33.5681 25.9082 32.1569 25.2404 30.8902C24.5727 29.6235 23.6043 28.5401 22.4202 27.7349C21.2361 26.9298 19.8725 26.4275 18.4491 26.2722C17.0256 26.1169 15.5858 26.3134 14.2559 26.8442C12.9261 27.3751 11.7468 28.2243 10.8217 29.3172C9.89653 30.4101 9.25372 31.7133 8.94966 33.1126C8.6456 34.5118 8.68958 35.9643 9.07775 37.3426C9.46592 38.7209 10.1864 39.9829 11.176 41.0178C9.41086 42.2917 7.92017 43.9079 6.79273 45.7701C5.6653 47.6322 4.92417 49.7023 4.6135 51.8568C4.51221 52.4685 4.54568 53.0948 4.71154 53.6922C4.87741 54.2895 5.17168 54.8434 5.57381 55.3153C5.9859 55.8027 6.49908 56.1947 7.07776 56.464C7.65644 56.7333 8.28678 56.8735 8.92506 56.875H61.0532C61.6973 56.8759 62.334 56.7364 62.9188 56.4663C63.5036 56.1962 64.0225 55.8019 64.4394 55.3109C64.8411 54.8413 65.1357 54.2898 65.3027 53.6948C65.4697 53.0998 65.505 52.4756 65.4063 51.8656ZM52.5001 30.625C53.3654 30.625 54.2112 30.8816 54.9307 31.3623C55.6501 31.843 56.2109 32.5263 56.542 33.3257C56.8732 34.1251 56.9598 35.0048 56.791 35.8535C56.6222 36.7021 56.2055 37.4817 55.5937 38.0936C54.9818 38.7054 54.2022 39.1221 53.3536 39.2909C52.5049 39.4597 51.6252 39.3731 50.8258 39.0419C50.0264 38.7108 49.3431 38.15 48.8624 37.4306C48.3816 36.7111 48.1251 35.8653 48.1251 35C48.1251 33.8396 48.586 32.7268 49.4065 31.9064C50.2269 31.0859 51.3397 30.625 52.5001 30.625ZM35.0001 17.5C36.298 17.5 37.5668 17.8848 38.646 18.6059C39.7252 19.327 40.5663 20.352 41.063 21.5511C41.5597 22.7502 41.6897 24.0697 41.4365 25.3427C41.1832 26.6157 40.5582 27.7851 39.6404 28.7029C38.7227 29.6206 37.5533 30.2456 36.2803 30.4989C35.0073 30.7521 33.6878 30.6221 32.4887 30.1254C31.2896 29.6287 30.2646 28.7876 29.5435 27.7084C28.8224 26.6292 28.4376 25.3604 28.4376 24.0625C28.4376 22.322 29.129 20.6528 30.3597 19.4221C31.5904 18.1914 33.2596 17.5 35.0001 17.5ZM17.5001 30.625C18.3654 30.625 19.2112 30.8816 19.9307 31.3623C20.6501 31.843 21.2109 32.5263 21.542 33.3257C21.8732 34.1251 21.9598 35.0048 21.791 35.8535C21.6222 36.7021 21.2055 37.4817 20.5937 38.0936C19.9818 38.7054 19.2022 39.1221 18.3536 39.2909C17.5049 39.4597 16.6252 39.3731 15.8258 39.0419C15.0264 38.7108 14.3431 38.15 13.8624 37.4306C13.3816 36.7111 13.1251 35.8653 13.1251 35C13.1251 33.8396 13.586 32.7268 14.4065 31.9064C15.2269 31.0859 16.3397 30.625 17.5001 30.625ZM8.9185 52.5612C9.13255 50.6121 9.8683 48.7568 11.0482 47.1907C12.2282 45.6246 13.8087 44.4057 15.6232 43.6625C15.6844 43.645 15.726 43.599 15.7851 43.5771C16.3498 43.6903 16.9241 43.7482 17.5001 43.75C18.4105 43.7373 19.3133 43.5816 20.1754 43.2884C18.7339 46.1696 17.8569 49.3001 17.5919 52.5109L8.9185 52.5612ZM21.9822 52.5C22.8201 44.0015 28.4376 37.1875 35.0001 37.1875C41.5626 37.1875 47.1801 44.0015 48.0179 52.5H21.9822ZM52.4082 52.5C52.1419 49.2929 51.265 46.1663 49.8247 43.2884C51.2103 43.7785 52.7035 43.8807 54.1429 43.5837C54.2217 43.6333 54.3035 43.6779 54.3879 43.7172C56.186 44.4464 57.7542 45.6471 58.9272 47.1928C60.1002 48.7385 60.8347 50.5719 61.0532 52.5H52.4082Z" fill="#FF65FF"/>
</svg>
