<svg width="70" height="70" viewBox="0 0 70 70" fill="none" xmlns="http://www.w3.org/2000/svg">
<path d="M64.75 54.0115L59.3841 48.6434L61.7553 46.2721C62.2102 45.8163 62.5327 45.2453 62.6881 44.6204C62.8436 43.9954 62.8263 43.34 62.638 42.7241C62.4497 42.1082 62.0976 41.5551 61.6192 41.1239C61.1408 40.6928 60.5542 40.3997 59.9222 40.2762L50.2972 38.3993C52.6614 33.2439 53.1382 27.4214 51.6441 21.95C50.1501 16.4786 46.7803 11.7065 42.124 8.4681C37.4676 5.22972 31.8211 3.73117 26.1718 4.23447C20.5225 4.73777 15.2298 7.21091 11.2193 11.2214C7.20877 15.2319 4.73564 20.5246 4.23233 26.1739C3.72903 31.8233 5.22758 37.4698 8.46596 42.1261C11.7043 46.7824 16.4764 50.1522 21.9478 51.6463C27.4192 53.1403 33.2417 52.6636 38.3972 50.2993L40.2741 59.9243C40.3976 60.5566 40.6909 61.1434 41.1223 61.6219C41.5538 62.1004 42.1072 62.4525 42.7234 62.6406C43.3396 62.8287 43.9954 62.8457 44.6205 62.6897C45.2456 62.5338 45.8165 62.2108 46.2722 61.7553L48.6413 59.3862L54.0116 64.75C54.3406 65.0808 54.7319 65.3432 55.1629 65.522C55.594 65.7007 56.0562 65.7922 56.5228 65.7912C56.9891 65.7924 57.4511 65.701 57.8818 65.5222C58.3125 65.3435 58.7034 65.081 59.0319 64.75L64.7434 59.0406C65.0744 58.7106 65.337 58.3185 65.5162 57.8868C65.6953 57.4551 65.7876 56.9923 65.7876 56.5249C65.7876 56.0576 65.6953 55.5948 65.5162 55.1631C65.337 54.7314 65.0744 54.3393 64.7434 54.0093L64.75 54.0115ZM28.4375 48.125C24.1336 48.1297 19.9465 46.7256 16.5157 44.127C13.0849 41.5284 10.5989 37.8783 9.43753 33.7341C8.27615 29.5899 8.50319 25.1795 10.084 21.1764C11.6648 17.1734 14.5124 13.7978 18.1919 11.5653C21.8715 9.33274 26.1806 8.36598 30.4612 8.81264C34.7418 9.2593 38.7586 11.0948 41.898 14.0389C45.0374 16.983 47.1268 20.8737 47.8471 25.1168C48.5674 29.36 47.8791 33.7223 45.8872 37.5374L38.6991 36.1353C38.3477 36.0672 37.985 36.0863 37.6427 36.1911C37.3005 36.2958 36.9891 36.4829 36.7361 36.736C36.483 36.9891 36.2958 37.3004 36.1911 37.6427C36.0864 37.9849 36.0672 38.3476 36.1353 38.699L37.5375 45.8871C34.7301 47.3588 31.6073 48.1268 28.4375 48.125ZM56.5228 61.0706L50.19 54.7378C49.7798 54.3277 49.2235 54.0973 48.6434 54.0973C48.0634 54.0973 47.5071 54.3277 47.0969 54.7378L44.275 57.5618L41.0506 41.0506L57.5619 44.2749L54.7378 47.0968C54.3277 47.507 54.0973 48.0633 54.0973 48.6434C54.0973 49.2234 54.3277 49.7797 54.7378 50.1899L61.0706 56.5228L56.5228 61.0706Z" fill="#FF65FF"/>
<path d="M30.625 26.25V21.875H32.8125C33.3927 21.875 33.9491 21.6445 34.3593 21.2343C34.7695 20.8241 35 20.2677 35 19.6875C35 19.1073 34.7695 18.5509 34.3593 18.1407C33.9491 17.7305 33.3927 17.5 32.8125 17.5H30.625V15.3125C30.625 14.7323 30.3945 14.1759 29.9843 13.7657C29.5741 13.3555 29.0177 13.125 28.4375 13.125C27.8573 13.125 27.3009 13.3555 26.8907 13.7657C26.4805 14.1759 26.25 14.7323 26.25 15.3125V17.5C24.5095 17.5 22.8403 18.1914 21.6096 19.4221C20.3789 20.6528 19.6875 22.322 19.6875 24.0625C19.6875 25.803 20.3789 27.4722 21.6096 28.7029C22.8403 29.9336 24.5095 30.625 26.25 30.625V35H23.1875C22.6073 35 22.0509 35.2305 21.6407 35.6407C21.2305 36.0509 21 36.6073 21 37.1875C21 37.7677 21.2305 38.3241 21.6407 38.7343C22.0509 39.1445 22.6073 39.375 23.1875 39.375H26.25V41.5625C26.25 42.1427 26.4805 42.6991 26.8907 43.1093C27.3009 43.5195 27.8573 43.75 28.4375 43.75C29.0177 43.75 29.5741 43.5195 29.9843 43.1093C30.3945 42.6991 30.625 42.1427 30.625 41.5625V39.375C32.3655 39.375 34.0347 38.6836 35.2654 37.4529C36.4961 36.2222 37.1875 34.553 37.1875 32.8125C37.1875 31.072 36.4961 29.4028 35.2654 28.1721C34.0347 26.9414 32.3655 26.25 30.625 26.25ZM24.0625 24.0625C24.0625 23.4823 24.293 22.9259 24.7032 22.5157C25.1134 22.1055 25.6698 21.875 26.25 21.875V26.25C25.6698 26.25 25.1134 26.0195 24.7032 25.6093C24.293 25.1991 24.0625 24.6427 24.0625 24.0625ZM30.625 35V30.625C31.2052 30.625 31.7616 30.8555 32.1718 31.2657C32.582 31.6759 32.8125 32.2323 32.8125 32.8125C32.8125 33.3927 32.582 33.9491 32.1718 34.3593C31.7616 34.7695 31.2052 35 30.625 35Z" fill="#FF65FF"/>
</svg>
