<svg width="70" height="70" viewBox="0 0 70 70" fill="none" xmlns="http://www.w3.org/2000/svg">
<path d="M61.25 45.9375V24.0625C61.25 22.322 60.5586 20.6528 59.3279 19.4221C58.0972 18.1914 56.428 17.5 54.6875 17.5H52.5V15.3125C52.5 13.572 51.8086 11.9028 50.5779 10.6721C49.3472 9.4414 47.678 8.75 45.9375 8.75H24.0625C22.322 8.75 20.6528 9.4414 19.4221 10.6721C18.1914 11.9028 17.5 13.572 17.5 15.3125V17.5H15.3125C13.572 17.5 11.9028 18.1914 10.6721 19.4221C9.4414 20.6528 8.75 22.322 8.75 24.0625V45.9375C7.58968 45.9375 6.47688 46.3984 5.65641 47.2189C4.83594 48.0394 4.375 49.1522 4.375 50.3125V52.5C4.375 54.8206 5.29687 57.0462 6.93782 58.6872C8.57876 60.3281 10.8044 61.25 13.125 61.25H56.875C59.1956 61.25 61.4212 60.3281 63.0622 58.6872C64.7031 57.0462 65.625 54.8206 65.625 52.5V50.3125C65.625 49.1522 65.1641 48.0394 64.3436 47.2189C63.5231 46.3984 62.4103 45.9375 61.25 45.9375ZM24.0625 13.125H45.9375C46.3118 13.1341 46.6771 13.242 46.9963 13.4378L36.2141 20.6259C35.8546 20.8658 35.4321 20.9938 35 20.9938C34.5679 20.9938 34.1454 20.8658 33.7859 20.6259L23.0037 13.4378C23.3229 13.242 23.6882 13.1341 24.0625 13.125ZM21.875 17.9375L31.36 24.2616C32.4373 24.9818 33.7041 25.3662 35 25.3662C36.2959 25.3662 37.5627 24.9818 38.64 24.2616L48.125 17.9375V30.625C48.125 31.2052 47.8945 31.7616 47.4843 32.1718C47.0741 32.582 46.5177 32.8125 45.9375 32.8125H24.0625C23.4823 32.8125 22.9259 32.582 22.5157 32.1718C22.1055 31.7616 21.875 31.2052 21.875 30.625V17.9375ZM13.125 24.0625C13.125 23.4823 13.3555 22.9259 13.7657 22.5157C14.1759 22.1055 14.7323 21.875 15.3125 21.875H17.5V30.625C17.5 32.3655 18.1914 34.0347 19.4221 35.2654C20.6528 36.4961 22.322 37.1875 24.0625 37.1875H45.9375C47.678 37.1875 49.3472 36.4961 50.5779 35.2654C51.8086 34.0347 52.5 32.3655 52.5 30.625V21.875H54.6875C55.2677 21.875 55.8241 22.1055 56.2343 22.5157C56.6445 22.9259 56.875 23.4823 56.875 24.0625V45.9375H13.125V24.0625ZM61.25 52.5C61.25 53.6603 60.7891 54.7731 59.9686 55.5936C59.1481 56.4141 58.0353 56.875 56.875 56.875H13.125C11.9647 56.875 10.8519 56.4141 10.0314 55.5936C9.21094 54.7731 8.75 53.6603 8.75 52.5V50.3125H61.25V52.5Z" fill="#FF65FF"/>
</svg>
