<svg width="128" height="30" viewBox="0 0 128 30" fill="none" xmlns="http://www.w3.org/2000/svg">
<g clip-path="url(#clip0_505_30)">
<path d="M9.67942 0V10L0.477173 15V5L9.67942 0Z" fill="white"/>
<path d="M18.8819 0V10L9.67969 15V5L18.8819 0Z" fill="white"/>
<path d="M9.67942 15V25L0.477173 30V20L9.67942 15Z" fill="white"/>
<path d="M18.8819 15V25L9.67969 30V20L18.8819 15Z" fill="white"/>
<path d="M29.7267 18.1417H32.4368C32.4844 18.7266 32.7142 19.2562 33.1262 19.7303C33.5383 20.1887 34.0771 20.5523 34.7428 20.8211C35.4243 21.0739 36.2009 21.2004 37.0725 21.2004C37.8491 21.2004 38.491 21.1056 38.9981 20.9159C39.5053 20.7262 39.8856 20.4654 40.1392 20.1334C40.3928 19.8015 40.5196 19.3984 40.5196 18.9242C40.5196 18.4657 40.369 18.1101 40.068 17.8572C39.7826 17.6042 39.331 17.3909 38.7129 17.217C38.0948 17.0432 37.3103 16.8693 36.3594 16.6954C35.567 16.5373 34.8062 16.3397 34.0771 16.1026C33.3481 15.8655 32.6904 15.5652 32.104 15.2016C31.5335 14.838 31.0818 14.3954 30.749 13.8738C30.4161 13.3522 30.2497 12.7277 30.2497 12.0007C30.2497 11.1628 30.4795 10.412 30.9391 9.74817C31.4146 9.08425 32.112 8.56258 33.0311 8.18322C33.9662 7.80385 35.1073 7.61417 36.4545 7.61417C38.483 7.61417 40.0283 8.08047 41.0901 9.01308C42.1679 9.92992 42.6909 11.1866 42.6591 12.7831H40.0441C39.9808 11.7872 39.6083 11.0759 38.9268 10.6492C38.2453 10.2065 37.3816 9.98525 36.3355 9.98525C35.3846 9.98525 34.5922 10.1512 33.9583 10.4832C33.3244 10.7993 33.0074 11.3288 33.0074 12.0717C33.0074 12.3721 33.0787 12.6408 33.2213 12.8779C33.3798 13.0992 33.6334 13.3047 33.982 13.4944C34.3465 13.6683 34.83 13.8422 35.4322 14.0161C36.0503 14.1742 36.811 14.3401 37.7144 14.514C38.4751 14.6562 39.1883 14.838 39.854 15.0593C40.5355 15.2648 41.1219 15.5414 41.6131 15.8893C42.1203 16.2212 42.5165 16.6479 42.8018 17.1696C43.087 17.6912 43.2297 18.3314 43.2297 19.0902C43.2297 19.9596 43.0079 20.7341 42.564 21.4138C42.1203 22.0778 41.4388 22.6073 40.5196 23.0024C39.6004 23.3818 38.4117 23.5715 36.9537 23.5715C35.8443 23.5715 34.8775 23.445 34.0534 23.1921C33.2451 22.9234 32.5478 22.5835 31.9614 22.1726C31.3908 21.7458 30.9312 21.2873 30.5825 20.7973C30.2339 20.3073 29.9882 19.8331 29.8455 19.3747C29.7188 18.9005 29.6792 18.4895 29.7267 18.1417Z" fill="white"/>
<path d="M58.1015 23.2632H55.4152V11.4553H58.1015V23.2632ZM55.5578 17.6438L55.5815 18.4026C55.5657 18.608 55.5024 18.9162 55.3914 19.3272C55.2804 19.7382 55.1061 20.1887 54.8684 20.6787C54.6465 21.153 54.3454 21.6114 53.965 22.054C53.5846 22.4808 53.1092 22.8364 52.5386 23.121C51.9839 23.3897 51.3183 23.5241 50.5417 23.5241C49.9553 23.5241 49.3689 23.445 48.7825 23.2869C48.2119 23.1447 47.6889 22.8997 47.2135 22.5519C46.738 22.2042 46.3577 21.7299 46.0724 21.1292C45.7871 20.5128 45.6445 19.7462 45.6445 18.8293V11.4553H48.3309V18.3314C48.3309 19.0743 48.4497 19.6592 48.6874 20.086C48.9252 20.5128 49.2659 20.8132 49.7097 20.987C50.1693 21.1609 50.7002 21.2478 51.3024 21.2478C52.1424 21.2478 52.8556 21.0582 53.442 20.6787C54.0284 20.2836 54.4959 19.8094 54.8446 19.2562C55.2091 18.6871 55.4469 18.1497 55.5578 17.6438Z" fill="white"/>
<path d="M69.1906 23.5241C68.2081 23.5241 67.376 23.3344 66.6945 22.955C66.013 22.5598 65.4662 22.054 65.0541 21.4375C64.6421 20.8211 64.341 20.1572 64.1508 19.4458C63.9606 18.7345 63.8655 18.0469 63.8655 17.383C63.8655 16.5136 63.9527 15.7074 64.1271 14.9645C64.3172 14.2216 64.6183 13.5735 65.0304 13.0203C65.4425 12.4512 65.9892 12.0086 66.6707 11.6924C67.3522 11.3605 68.1921 11.1945 69.1906 11.1945C70.3476 11.1945 71.3698 11.4553 72.2573 11.9769C73.1449 12.4986 73.8422 13.2257 74.3494 14.1583C74.8565 15.0752 75.1101 16.15 75.1101 17.383C75.1101 18.5843 74.8486 19.6513 74.3256 20.5839C73.8026 21.5008 73.0973 22.22 72.2098 22.7416C71.3223 23.2633 70.3159 23.5241 69.1906 23.5241ZM68.3824 21.3427C69.1748 21.3427 69.8721 21.1767 70.4744 20.8448C71.0766 20.497 71.5441 20.0307 71.877 19.4458C72.2098 18.8452 72.3762 18.1575 72.3762 17.383C72.3762 16.1974 72.0276 15.2333 71.3302 14.4903C70.6329 13.7473 69.6502 13.3758 68.3824 13.3758C67.4948 13.3758 66.7341 13.5418 66.1001 13.8738C65.4821 14.1899 64.9987 14.6483 64.6501 15.249C64.3172 15.8339 64.1508 16.5452 64.1508 17.383C64.1508 18.1418 64.3172 18.8214 64.6501 19.4221C64.9828 20.007 65.4583 20.4733 66.0764 20.8211C66.7103 21.1688 67.479 21.3427 68.3824 21.3427ZM64.1508 6.71317V20.4417C64.1508 20.8843 64.1271 21.3743 64.0795 21.9118C64.0478 22.4492 64.0081 22.8997 63.9606 23.2633H61.4645V6.71317H64.1508Z" fill="white"/>
<path d="M77.7111 6.71317H80.3974V23.2633H77.7111V6.71317Z" fill="white"/>
<path d="M86.7172 6.42862V8.9894H83.5077V6.42862H86.7172ZM83.7454 11.4553H86.4555V23.2632H83.7454V11.4553Z" fill="white"/>
<path d="M89.5922 11.4553H92.278V23.2632H89.5922V11.4553ZM97.2947 11.1945C97.9913 11.1945 98.6338 11.2893 99.2197 11.479C99.8063 11.6687 100.305 11.9612 100.718 12.3563C101.145 12.7357 101.47 13.2178 101.692 13.8027C101.93 14.3717 102.049 15.0435 102.049 15.8181V23.2632H99.3622V16.3397C99.3622 15.3755 99.1247 14.6642 98.6497 14.2057C98.1897 13.7315 97.453 13.4944 96.4388 13.4944C95.678 13.4944 94.9805 13.6604 94.3463 13.9923C93.728 14.3085 93.2213 14.7274 92.8247 15.249C92.4288 15.7548 92.1988 16.3081 92.1355 16.9087L92.1122 15.6284C92.1913 15.0435 92.3655 14.4902 92.6347 13.9687C92.9038 13.4312 93.2605 12.957 93.7047 12.546C94.148 12.1192 94.6713 11.7872 95.2738 11.5502C95.8913 11.313 96.5655 11.1945 97.2947 11.1945ZM106.827 11.1945C107.525 11.1945 108.159 11.2893 108.729 11.479C109.315 11.6687 109.823 11.9612 110.25 12.3563C110.679 12.7357 111.011 13.2178 111.249 13.8027C111.486 14.3717 111.605 15.0435 111.605 15.8181V23.2632H108.895V16.3397C108.895 15.3755 108.658 14.6642 108.182 14.2057C107.723 13.7315 106.985 13.4944 105.971 13.4944C105.21 13.4944 104.513 13.6604 103.88 13.9923C103.245 14.3085 102.73 14.7274 102.334 15.249C101.954 15.7548 101.732 16.3081 101.669 16.9087L101.621 15.581C101.7 15.0119 101.882 14.4666 102.168 13.9449C102.453 13.4233 102.817 12.957 103.261 12.546C103.72 12.1192 104.252 11.7872 104.854 11.5502C105.456 11.313 106.114 11.1945 106.827 11.1945Z" fill="white"/>
<path d="M124.487 19.3747H127.078C126.951 20.1808 126.626 20.9001 126.104 21.5323C125.596 22.1488 124.915 22.6388 124.059 23.0024C123.203 23.3502 122.173 23.5241 120.969 23.5241C119.59 23.5241 118.37 23.2791 117.307 22.789C116.245 22.2832 115.405 21.5719 114.788 20.6551C114.185 19.7382 113.884 18.6476 113.884 17.383C113.884 16.1342 114.177 15.0435 114.764 14.1109C115.366 13.1782 116.19 12.4591 117.236 11.9532C118.282 11.4474 119.495 11.1945 120.874 11.1945C122.284 11.1945 123.465 11.4474 124.415 11.9532C125.382 12.4432 126.095 13.1862 126.555 14.182C127.015 15.1621 127.205 16.4029 127.125 17.9046H116.595C116.674 18.5685 116.895 19.1612 117.26 19.6829C117.625 20.2046 118.115 20.6156 118.734 20.9159C119.352 21.2162 120.081 21.3664 120.921 21.3664C121.84 21.3664 122.609 21.1846 123.227 20.8211C123.861 20.4417 124.28 19.9596 124.487 19.3747ZM120.802 13.3522C119.709 13.3522 118.813 13.613 118.115 14.1346C117.419 14.6562 116.967 15.3281 116.76 16.15H124.44C124.36 15.2648 123.995 14.5772 123.345 14.0872C122.696 13.5972 121.848 13.3522 120.802 13.3522Z" fill="white"/>
</g>
<defs>
<clipPath id="clip0_505_30">
<rect width="126.667" height="30" fill="white" transform="translate(0.477173)"/>
</clipPath>
</defs>
</svg>
