<svg width="128" height="30" viewBox="0 0 128 30" fill="none" xmlns="http://www.w3.org/2000/svg">
<path d="M28.294 19.064C28.294 24.7916 23.651 29.4346 17.9235 29.4346C12.196 29.4346 7.55298 24.7916 7.55298 19.064C7.55298 13.3366 12.196 8.69348 17.9235 8.69348H28.294V19.064Z" fill="#DBDBDB"/>
<path d="M1.46069 10.3706C1.46069 4.64306 6.10375 0 11.8312 0C17.5587 0 22.2018 4.64305 22.2018 10.3706C22.2018 16.098 17.5587 20.741 11.8312 20.741H1.46069V10.3706Z" fill="white"/>
<path fill-rule="evenodd" clip-rule="evenodd" d="M22.0676 8.69357C22.1563 9.2395 22.2025 9.79969 22.2025 10.3706C22.2025 16.0982 17.5594 20.7412 11.8319 20.7412H7.68827C7.59952 20.1953 7.55334 19.6351 7.55334 19.0641C7.55334 13.3366 12.1964 8.69357 17.9239 8.69357H22.0676Z" fill="white"/>
<path d="M47.9392 15.8677L50.09 7.65872H52.8861L49.4448 20.2051H46.5591L44.1932 12.283L41.8093 20.2051H38.9237L35.4824 7.65872H38.2784L40.4293 15.8677L42.7773 7.65872H45.5913L47.9392 15.8677ZM57.2 11.0104C58.0723 11.0104 58.849 11.2195 59.5301 11.6377C60.2231 12.0559 60.7608 12.6235 61.1432 13.3404C61.5256 14.0574 61.7167 14.852 61.7167 15.7243C61.7167 16.0588 61.6928 16.3636 61.6451 16.6384H55.0134C55.2403 17.188 55.5451 17.6003 55.9274 17.875C56.3098 18.1379 56.8057 18.2694 57.4151 18.2694C57.7855 18.2694 58.144 18.1917 58.4905 18.0364C58.849 17.881 59.1297 17.6719 59.3329 17.4091L61.2687 18.5562C60.8504 19.1656 60.3068 19.6316 59.6376 19.9542C58.9804 20.2768 58.2216 20.4381 57.3613 20.4381C56.3934 20.4381 55.5391 20.235 54.7982 19.8287C54.0575 19.4105 53.4839 18.8429 53.0776 18.126C52.6713 17.4091 52.4682 16.6085 52.4682 15.7243C52.4682 14.8401 52.6654 14.0394 53.0597 13.3225C53.466 12.6056 54.0275 12.044 54.7445 11.6377C55.4615 11.2195 56.28 11.0104 57.2 11.0104ZM59.315 14.6489C59.2314 14.1948 58.9923 13.8423 58.5981 13.5914C58.2157 13.3404 57.7437 13.2149 57.1821 13.2149C56.5966 13.2149 56.0888 13.3584 55.6586 13.6451C55.2284 13.9199 55.0014 14.2546 54.9775 14.6489H59.315ZM68.5541 10.9925C69.4861 10.9925 70.2867 11.1956 70.9558 11.6019C71.637 12.0081 72.1567 12.5757 72.5152 13.3046C72.8736 14.0215 73.0529 14.8341 73.0529 15.7422C73.0529 16.6503 72.8736 17.4629 72.5152 18.1798C72.1567 18.8848 71.637 19.4404 70.9558 19.8466C70.2867 20.2529 69.4861 20.4561 68.5541 20.4561C68.0164 20.4561 67.4966 20.3604 66.9948 20.1693C66.4929 19.9781 66.0329 19.7033 65.6146 19.3448V20.2051H63.0516V7.65872H65.6146V12.1216C66.0329 11.7632 66.4929 11.4883 66.9948 11.2971C67.4966 11.094 68.0164 10.9925 68.5541 10.9925ZM68.2135 18.0185C68.8827 18.0185 69.4264 17.8093 69.8446 17.3912C70.2747 16.9729 70.4899 16.4233 70.4899 15.7422C70.4899 15.0611 70.2747 14.5115 69.8446 14.0932C69.4264 13.675 68.8827 13.4659 68.2135 13.4659C67.5444 13.4659 66.9828 13.675 66.5288 14.0932C66.0747 14.5115 65.8477 15.0491 65.8477 15.7063C65.8477 16.3874 66.0747 16.9431 66.5288 17.3732C66.9828 17.8034 67.5444 18.0185 68.2135 18.0185ZM77.7972 17.0148C77.7972 17.3493 77.8872 17.5824 78.0665 17.7138C78.2574 17.8452 78.5443 17.9109 78.927 17.9109C79.1655 17.9109 79.4289 17.893 79.715 17.8572V20.2051C79.1179 20.2649 78.6218 20.2947 78.2274 20.2947C77.2243 20.2947 76.4713 20.0737 75.9694 19.6316C75.4792 19.1775 75.2348 18.359 75.2348 17.176V13.5197H73.6931V11.2434H75.2348V9.16428L77.7972 8.30394V11.2434H79.6799V13.5197H77.7972V17.0148ZM85.3982 11.0104C86.2704 11.0104 87.0467 11.2195 87.7279 11.6377C88.4209 12.0559 88.9587 12.6235 89.3413 13.3404C89.7233 14.0574 89.915 14.852 89.915 15.7243C89.915 16.0588 89.8909 16.3636 89.8433 16.6384H83.2111C83.4387 17.188 83.7431 17.6003 84.1257 17.875C84.5077 18.1379 85.0038 18.2694 85.6133 18.2694C85.9835 18.2694 86.3421 18.1917 86.6882 18.0364C87.0467 17.881 87.3277 17.6719 87.5311 17.4091L89.4665 18.5562C89.0487 19.1656 88.505 19.6316 87.8355 19.9542C87.1784 20.2768 86.4196 20.4381 85.5592 20.4381C84.5911 20.4381 83.7372 20.235 82.996 19.8287C82.2555 19.4105 81.6818 18.8429 81.2757 18.126C80.8696 17.4091 80.6662 16.6085 80.6662 15.7243C80.6662 14.8401 80.8631 14.0394 81.2574 13.3225C81.6635 12.6056 82.2255 12.044 82.9426 11.6377C83.6596 11.2195 84.4777 11.0104 85.3982 11.0104ZM87.5128 14.6489C87.4294 14.1948 87.1901 13.8423 86.7957 13.5914C86.4138 13.3404 85.9418 13.2149 85.3799 13.2149C84.7945 13.2149 84.2867 13.3584 83.8565 13.6451C83.4262 13.9199 83.1994 14.2546 83.1753 14.6489H87.5128ZM99.3511 18.4486C98.9091 19.07 98.3472 19.5659 97.666 19.9363C96.9972 20.2947 96.2743 20.474 95.4972 20.474C94.6367 20.474 93.8428 20.2649 93.1133 19.8466C92.397 19.4165 91.8233 18.8369 91.393 18.1081C90.9745 17.3792 90.7653 16.5905 90.7653 15.7422C90.7653 14.8818 90.9745 14.0932 91.393 13.3763C91.8233 12.6474 92.397 12.0738 93.1133 11.6556C93.8428 11.2255 94.6367 11.0104 95.4972 11.0104C96.2743 11.0104 96.9972 11.1896 97.666 11.5481C98.3355 11.9066 98.8909 12.3905 99.3328 12.9999L97.2182 14.3979C96.7162 13.8363 96.1426 13.5556 95.4972 13.5556C94.9001 13.5556 94.3865 13.7706 93.9562 14.2008C93.526 14.6309 93.3109 15.1447 93.3109 15.7422C93.3109 16.3396 93.526 16.8534 93.9562 17.2836C94.3865 17.7018 94.9001 17.9109 95.4972 17.9109C96.1426 17.9109 96.7162 17.6301 97.2182 17.0686L99.3511 18.4486ZM108.981 20.2051H106.418V14.9177C106.418 14.3442 106.257 13.9319 105.934 13.681C105.612 13.4181 105.229 13.2866 104.787 13.2866C104.417 13.2866 104.094 13.4061 103.819 13.6451C103.545 13.8722 103.371 14.2306 103.299 14.7206V20.2051H100.736V7.65872H103.299V11.8886C103.956 11.339 104.668 11.0642 105.432 11.0642C105.946 11.0642 106.466 11.1776 106.992 11.4047C107.529 11.6198 107.99 12.0081 108.372 12.5697C108.766 13.1313 108.969 13.8901 108.981 14.846V20.2051ZM123.5 7.65872H126.726L122.658 13.9499L126.709 20.2051H123.483L120.776 15.9931L118.07 20.2051H114.844L118.894 13.9499L114.825 7.65872H118.052L120.776 11.8886L123.5 7.65872Z" fill="white"/>
</svg>
