<svg width="105" height="30" viewBox="0 0 105 30" fill="none" xmlns="http://www.w3.org/2000/svg">
<path d="M36.8755 22.7576C35.65 22.7576 34.5682 22.5381 33.6303 22.0994C32.6922 21.6607 31.9584 21.0327 31.429 20.2158C30.8994 19.3988 30.6346 18.4154 30.6346 17.2655V16.6301H33.5848V17.2655C33.5848 18.2186 33.8799 18.9374 34.4699 19.4215C35.06 19.8905 35.8618 20.125 36.8755 20.125C37.9043 20.125 38.6684 19.9208 39.1677 19.5122C39.682 19.1037 39.9393 18.5818 39.9393 17.9463C39.9393 17.5076 39.8106 17.152 39.5535 16.8797C39.3113 16.6074 38.9482 16.388 38.4641 16.2216C37.9951 16.04 37.4202 15.8736 36.7394 15.7223L36.2174 15.6088C35.128 15.3668 34.1901 15.0642 33.4033 14.7011C32.6317 14.3228 32.0341 13.8311 31.6105 13.226C31.202 12.6208 30.9977 11.834 30.9977 10.8657C30.9977 9.8975 31.2247 9.07293 31.6786 8.3921C32.1476 7.69614 32.7982 7.16661 33.6303 6.80351C34.4775 6.42527 35.4685 6.23615 36.6032 6.23615C37.7379 6.23615 38.744 6.43283 39.6215 6.82619C40.5142 7.20443 41.2101 7.77935 41.7094 8.55095C42.2238 9.30744 42.481 10.2606 42.481 11.4104V12.0913H39.5308V11.4104C39.5308 10.8052 39.4097 10.3211 39.1677 9.95801C38.9407 9.57976 38.6079 9.30744 38.1691 9.14099C37.7303 8.95944 37.2083 8.86867 36.6032 8.86867C35.6954 8.86867 35.0222 9.04267 34.5834 9.39067C34.1598 9.7235 33.9479 10.1849 33.9479 10.775C33.9479 11.1684 34.0463 11.5012 34.243 11.7735C34.4548 12.0458 34.765 12.2728 35.1735 12.4544C35.582 12.6359 36.1039 12.7947 36.7394 12.9309L37.2613 13.0444C38.3961 13.2865 39.3795 13.5967 40.2116 13.9748C41.0588 14.3531 41.717 14.8524 42.1859 15.4727C42.655 16.093 42.8895 16.8873 42.8895 17.8556C42.8895 18.8239 42.6399 19.6787 42.1406 20.42C41.6564 21.1462 40.9605 21.7212 40.0527 22.1448C39.16 22.5533 38.101 22.7576 36.8755 22.7576ZM47.5746 22.7576C46.7728 22.7576 46.054 22.6214 45.4186 22.349C44.7832 22.0616 44.2763 21.653 43.8982 21.1235C43.535 20.5789 43.3534 19.9208 43.3534 19.1492C43.3534 18.3776 43.535 17.7345 43.8982 17.2202C44.2763 16.6906 44.7908 16.2973 45.4414 16.04C46.107 15.7677 46.8635 15.6315 47.7107 15.6315H50.7971V14.9961C50.7971 14.4666 50.6308 14.0354 50.2979 13.7025C49.965 13.3545 49.4355 13.1805 48.7093 13.1805C47.9982 13.1805 47.4687 13.347 47.1207 13.6798C46.7728 13.9976 46.5458 14.4136 46.4398 14.928L43.8074 14.043C43.9889 13.468 44.2763 12.9461 44.6698 12.4771C45.0782 11.9929 45.6154 11.6071 46.281 11.3197C46.9618 11.017 47.7864 10.8657 48.7546 10.8657C50.2373 10.8657 51.4099 11.2364 52.2723 11.9778C53.1346 12.7191 53.5659 13.7933 53.5659 15.2004V19.3988C53.5659 19.8527 53.7777 20.0796 54.2013 20.0796H55.1091V22.4398H53.2027C52.643 22.4398 52.1815 22.3036 51.8184 22.0313C51.4553 21.759 51.2737 21.3959 51.2737 20.942V20.9193H50.8426C50.782 21.1009 50.6458 21.3429 50.434 21.6455C50.2222 21.933 49.8894 22.1901 49.4355 22.4171C48.9816 22.6441 48.3613 22.7576 47.5746 22.7576ZM48.0738 20.4427C48.8758 20.4427 49.5262 20.2233 50.0255 19.7846C50.54 19.3307 50.7971 18.7331 50.7971 17.9918V17.7648H47.915C47.3854 17.7648 46.9694 17.8783 46.6668 18.1052C46.3642 18.3321 46.213 18.6499 46.213 19.0584C46.213 19.4669 46.3718 19.7997 46.6895 20.0569C47.0073 20.3141 47.4687 20.4427 48.0738 20.4427ZM57.106 22.4398V13.5437H54.2465V11.1835H57.106V9.09564C57.106 8.32402 57.3329 7.71127 57.7868 7.25739C58.2558 6.78838 58.861 6.55386 59.6023 6.55386H62.5526V8.9141H60.6009C60.1773 8.9141 59.9655 9.14099 59.9655 9.59493V11.1835H62.9157V13.5437H59.9655V22.4398H57.106ZM68.9738 22.7576C67.8542 22.7576 66.8481 22.5306 65.9554 22.0767C65.0628 21.6228 64.3593 20.9647 63.8449 20.1023C63.3305 19.2399 63.0733 18.2036 63.0733 16.9932V16.6301C63.0733 15.4197 63.3305 14.3834 63.8449 13.521C64.3593 12.6586 65.0628 12.0005 65.9554 11.5466C66.8481 11.0927 67.8542 10.8657 68.9738 10.8657C70.0934 10.8657 71.0995 11.0927 71.9921 11.5466C72.8848 12.0005 73.5883 12.6586 74.1027 13.521C74.617 14.3834 74.8743 15.4197 74.8743 16.6301V16.9932C74.8743 18.2036 74.617 19.2399 74.1027 20.1023C73.5883 20.9647 72.8848 21.6228 71.9921 22.0767C71.0995 22.5306 70.0934 22.7576 68.9738 22.7576ZM68.9738 20.2158C69.8513 20.2158 70.5775 19.9358 71.1524 19.376C71.7274 18.8012 72.0148 17.9842 72.0148 16.9251V16.6982C72.0148 15.6391 71.7274 14.8297 71.1524 14.2699C70.5927 13.695 69.8664 13.4075 68.9738 13.4075C68.0962 13.4075 67.3701 13.695 66.7951 14.2699C66.2202 14.8297 65.9327 15.6391 65.9327 16.6982V16.9251C65.9327 17.9842 66.2202 18.8012 66.7951 19.376C67.3701 19.9358 68.0962 20.2158 68.9738 20.2158ZM75.771 22.4398V19.0357L81.9439 13.9068V13.5437H75.998V11.1835H85.0756V14.5876L78.9028 19.7165V20.0796H85.2572V22.4398H75.771ZM90.2855 22.7576C89.4841 22.7576 88.765 22.6214 88.1298 22.349C87.4947 22.0616 86.9872 21.653 86.6092 21.1235C86.2458 20.5789 86.0646 19.9208 86.0646 19.1492C86.0646 18.3776 86.2458 17.7345 86.6092 17.2202C86.9872 16.6906 87.5015 16.2973 88.1521 16.04C88.8181 15.7677 89.575 15.6315 90.4218 15.6315H93.5084V14.9961C93.5084 14.4666 93.3421 14.0354 93.0087 13.7025C92.6761 13.3545 92.1464 13.1805 91.4204 13.1805C90.709 13.1805 90.1801 13.347 89.8321 13.6798C89.4841 13.9976 89.257 14.4136 89.1507 14.928L86.5184 14.043C86.7001 13.468 86.9872 12.9461 87.3807 12.4771C87.7895 11.9929 88.3261 11.6071 88.9921 11.3197C89.6727 11.017 90.4972 10.8657 91.4658 10.8657C92.9487 10.8657 94.1212 11.2364 94.9835 11.9778C95.8458 12.7191 96.277 13.7933 96.277 15.2004V19.3988C96.277 19.8527 96.4887 20.0796 96.9121 20.0796H97.8198V22.4398H95.9135C95.3538 22.4398 94.8927 22.3036 94.5292 22.0313C94.1667 21.759 93.985 21.3959 93.985 20.942V20.9193H93.5538C93.493 21.1009 93.3567 21.3429 93.145 21.6455C92.9332 21.933 92.6007 22.1901 92.1464 22.4171C91.693 22.6441 91.0724 22.7576 90.2855 22.7576ZM90.7852 20.4427C91.5867 20.4427 92.2372 20.2233 92.737 19.7846C93.2512 19.3307 93.5084 18.7331 93.5084 17.9918V17.7648H90.6258C90.097 17.7648 89.6804 17.8783 89.3778 18.1052C89.0752 18.3321 88.9244 18.6499 88.9244 19.0584C88.9244 19.4669 89.083 19.7997 89.401 20.0569C89.7181 20.3141 90.1801 20.4427 90.7852 20.4427ZM98.7764 22.4398V11.1835H101.636V22.4398H98.7764ZM100.206 9.86724C99.6918 9.86724 99.253 9.70079 98.8895 9.36796C98.5415 9.03513 98.3675 8.59636 98.3675 8.05169C98.3675 7.50702 98.5415 7.06827 98.8895 6.73542C99.253 6.40257 99.6918 6.23615 100.206 6.23615C100.736 6.23615 101.174 6.40257 101.522 6.73542C101.87 7.06827 102.044 7.50702 102.044 8.05169C102.044 8.59636 101.87 9.03513 101.522 9.36796C101.174 9.70079 100.736 9.86724 100.206 9.86724Z" fill="white"/>
<path d="M13.0502 27.2492V20.4286C13.0502 15.6738 16.9053 11.8186 21.6602 11.8186V18.6392C21.6602 23.394 17.805 27.2492 13.0502 27.2492Z" fill="white"/>
<path d="M10.8613 22.7108V12.8355C10.8613 7.53846 6.56723 3.24438 1.27014 3.24438V13.1196C1.27014 18.4167 5.56422 22.7108 10.8613 22.7108Z" fill="white"/>
<path d="M19.4795 8.09858C19.8954 6.34945 18.8147 4.59422 17.0657 4.1782C15.3165 3.76218 13.5612 4.84288 13.1453 6.59203C12.7292 8.34116 13.8099 10.0964 15.5591 10.5124C17.3082 10.9284 19.0634 9.84771 19.4795 8.09858Z" fill="white"/>
</svg>
