<svg width="103" height="30" viewBox="0 0 103 30" fill="none" xmlns="http://www.w3.org/2000/svg">
<g clip-path="url(#clip0_505_10)">
<path d="M7.84366 26.4009C5.67958 25.37 4.01239 23.8839 2.83283 21.9567C1.65326 20.0248 1.06348 17.7585 1.06348 15.1579C1.06348 12.5573 1.6579 10.2585 2.84676 8.25232C4.03561 6.24613 5.67029 4.69504 7.74614 3.58978C9.82199 2.48452 12.1393 1.93188 14.6889 1.93188C17.2384 1.93188 19.5418 2.48452 21.5944 3.58978C23.6471 4.69504 25.2678 6.25077 26.4613 8.25232C27.6502 10.2585 28.2492 12.5573 28.2492 15.1579C28.2492 16.7601 27.8777 18.3158 27.1393 19.8204C26.3963 21.3251 25.4675 22.5279 24.3529 23.4288H28.7972V27.9474H15.3855C12.5201 27.9474 10.0031 27.4319 7.84366 26.4009ZM18.7756 22.1749C19.9644 21.5573 20.9025 20.6424 21.5805 19.4443C22.2585 18.2415 22.6022 16.8251 22.6022 15.1997C22.6022 13.5743 22.2539 12.144 21.5619 10.918C20.87 9.69195 19.9226 8.74922 18.7198 8.09442C17.517 7.43963 16.1749 7.1099 14.6935 7.1099C13.2121 7.1099 11.8328 7.43963 10.63 8.09442C9.42725 8.74922 8.47524 9.69195 7.76936 10.918C7.06348 12.144 6.71054 13.5743 6.71054 15.1997C6.71054 17.6796 7.44428 19.6161 8.91642 21.0139C10.3839 22.4118 12.3112 23.1084 14.6935 23.1084C16.226 23.1084 17.5867 22.7972 18.7756 22.1796V22.1749Z" fill="white"/>
<path d="M32.8421 26.5449C31.6533 25.2446 31.0542 23.517 31.0542 21.3529V10.4582H36.5573V20.7724C36.5573 23.0573 37.6161 24.1997 39.7291 24.1997C40.6533 24.1997 41.5124 23.9814 42.3158 23.5449C43.1192 23.1083 43.7879 22.4535 44.322 21.5758V10.4582H49.8251V27.9474H44.5031V25.8344C43.7229 26.7353 42.7848 27.3994 41.6796 27.8405C40.5743 28.2771 39.4133 28.4953 38.2013 28.4953C35.8189 28.4953 34.0356 27.8452 32.8468 26.5449H32.8421Z" fill="white"/>
<path d="M54.5248 6.92416C53.9397 6.36689 53.6517 5.661 53.6517 4.81116C53.6517 3.96131 53.9443 3.28794 54.5248 2.71673C55.1053 2.14553 55.8251 1.86224 56.675 1.86224C57.5248 1.86224 58.24 2.15017 58.8251 2.71673C59.4102 3.28794 59.6982 3.98453 59.6982 4.81116C59.6982 5.63778 59.4056 6.36689 58.8251 6.92416C58.2446 7.48144 57.5248 7.76472 56.675 7.76472C55.8251 7.76472 55.1099 7.48608 54.5248 6.92416ZM53.9072 10.4582H59.4474V27.9474H53.9072V10.4582Z" fill="white"/>
<path d="M65.5681 26.0712C63.6966 24.4551 62.7632 22.1796 62.7632 19.2399C62.7632 16.3003 63.7059 14.0108 65.5867 12.3715C67.4675 10.7322 69.9892 9.91022 73.1471 9.91022C76.0124 9.91022 78.2972 10.4443 79.9969 11.5124V15.8498C79.2167 15.2926 78.3158 14.8793 77.2802 14.6099C76.2493 14.3406 75.1626 14.2105 74.0202 14.2105C72.3205 14.2105 70.9598 14.6238 69.9381 15.4505C68.9164 16.2771 68.4056 17.5402 68.4056 19.2399C68.4056 20.9396 68.9118 22.1981 69.9195 23.0108C70.9273 23.8235 72.2833 24.2322 73.983 24.2322C76.3375 24.2322 78.418 23.661 80.2152 22.5186V26.8189C78.418 27.9381 76.0496 28.4954 73.1099 28.4954C69.952 28.4954 67.4397 27.6873 65.5681 26.0712Z" fill="white"/>
<path d="M83.2755 1.02167H88.7786V17.856L95.1548 10.4582H101.531L94.1331 18.9845L102.441 27.9474H96.065L88.7786 20.0758V27.9474H83.2755V1.02167Z" fill="white"/>
</g>
<defs>
<clipPath id="clip0_505_10">
<rect width="102.446" height="30" fill="white"/>
</clipPath>
</defs>
</svg>
