<svg width="229" height="61" viewBox="0 0 229 61" fill="none" xmlns="http://www.w3.org/2000/svg">
<circle cx="30.5" cy="30.5" r="30.5" fill="#FF65FF"/>
<g clip-path="url(#clip0_508_24)">
<path d="M31.79 37.7237V43.2005L36.4614 40.4635V40.4578L42.4228 36.9672V29.9802V24.5033L37.7486 27.2403V27.246L31.7872 30.7367V37.718L31.79 37.7237ZM29.2128 37.7265V30.7395L23.2542 27.2488L18.5828 24.5118V29.9915V36.9728L24.5442 40.4663L29.2156 43.2033V37.7293L29.2128 37.7265ZM44.355 38.8598L37.7486 42.7302L31.1813 46.575L30.5475 47L30.5028 46.9745H30.4972L29.8578 46.6033L29.2184 46.2293V46.2237L23.257 42.7302L16.6506 38.8598L16 38.4802V29.9887V21.5453L16.5808 21.1572L17.2453 20.7123L17.935 21.1147L24.5414 24.985L30.5 28.4757L36.4642 24.9822L43.065 21.1175L43.7156 20.735L44.355 21.109L44.9944 21.483V29.9802V38.4773L44.3494 38.857L44.355 38.8598Z" fill="white"/>
<path d="M39.4128 21.2393L36.4614 19.5082L31.79 16.7712V23.5627L31.7872 23.5683V25.7868H29.2128V23.5683H29.21V16.7712L24.5386 19.5082V19.511L21.5872 21.2393L19.01 19.7292L23.2514 17.2443V17.2472L29.855 13.3797L30.5 13L31.1422 13.3768L37.7486 17.2472L41.9872 19.7292L39.4128 21.2393Z" fill="white"/>
</g>
<path d="M73 19.2412H80.5003C81.2121 19.2412 81.9327 19.3038 82.6623 19.4289C83.3919 19.554 84.0503 19.7952 84.6375 20.1526C85.2247 20.4921 85.6962 20.9746 86.0521 21.6C86.4258 22.2076 86.6127 23.0027 86.6127 23.9856C86.6127 24.8969 86.4258 25.71 86.0521 26.4247C85.6785 27.1395 85.0645 27.7024 84.2104 28.1134C85.4204 28.3993 86.2746 28.9354 86.7728 29.7216C87.2888 30.49 87.5469 31.4371 87.5469 32.5629C87.5469 33.6887 87.3066 34.6268 86.8262 35.3773C86.3635 36.1278 85.7674 36.7086 85.0379 37.1196C84.3083 37.5306 83.4898 37.8165 82.5822 37.9773C81.6925 38.1203 80.8117 38.1918 79.9398 38.1918H73V19.2412ZM76.0962 22.0289V27.2289H79.6195C80.0643 27.2289 80.527 27.2021 81.0074 27.1485C81.4879 27.077 81.915 26.9519 82.2886 26.7732C82.6801 26.5766 83.0004 26.2997 83.2495 25.9423C83.4986 25.5849 83.6232 25.1024 83.6232 24.4948C83.6232 23.9409 83.5253 23.5031 83.3296 23.1814C83.1339 22.8419 82.8758 22.5918 82.5555 22.4309C82.2353 22.2522 81.8616 22.145 81.4345 22.1093C81.0252 22.0557 80.5982 22.0289 80.1533 22.0289H76.0962ZM79.8864 35.4309C80.3846 35.4309 80.9007 35.4041 81.4345 35.3505C81.9683 35.2969 82.4577 35.1718 82.9025 34.9753C83.3474 34.7787 83.7122 34.4928 83.9969 34.1175C84.2994 33.7244 84.4506 33.1972 84.4506 32.5361C84.4506 32 84.335 31.5622 84.1037 31.2227C83.8901 30.8653 83.6054 30.5973 83.2495 30.4186C82.8936 30.222 82.4933 30.088 82.0484 30.0165C81.6213 29.945 81.1854 29.9093 80.7405 29.9093C80.3491 29.9093 79.9576 29.9093 79.5661 29.9093L77.2706 29.9361C76.8792 29.9361 76.4877 29.9361 76.0962 29.9361V35.4309H79.8864Z" fill="white"/>
<path d="M96.433 23.8247C97.5541 23.8247 98.5417 24.0034 99.3958 24.3608C100.25 24.7182 100.971 25.2186 101.558 25.8619C102.163 26.4873 102.617 27.2467 102.919 28.1402C103.222 29.0337 103.373 30.0254 103.373 31.1155C103.373 32.2234 103.222 33.2241 102.919 34.1175C102.634 34.9931 102.198 35.7526 101.611 36.3959C101.024 37.0392 100.294 37.5306 99.4225 37.8701C98.5683 38.2096 97.5719 38.3794 96.433 38.3794C95.312 38.3794 94.3244 38.2096 93.4703 37.8701C92.6161 37.5127 91.8955 37.0213 91.3083 36.3959C90.7388 35.7526 90.3029 34.9842 90.0004 34.0907C89.7157 33.1972 89.5733 32.2055 89.5733 31.1155C89.5733 30.0254 89.7157 29.0337 90.0004 28.1402C90.3029 27.2467 90.7477 26.4873 91.335 25.8619C91.9222 25.2186 92.6428 24.7182 93.497 24.3608C94.3511 24.0034 95.3298 23.8247 96.433 23.8247ZM96.433 35.7258C97.127 35.7258 97.7142 35.6096 98.1947 35.3773C98.6929 35.1271 99.0933 34.7966 99.3958 34.3856C99.7161 33.9746 99.9474 33.4921 100.09 32.9381C100.25 32.3842 100.33 31.7856 100.33 31.1423C100.33 30.499 100.25 29.9003 100.09 29.3464C99.9474 28.7746 99.7161 28.2832 99.3958 27.8722C99.0933 27.4612 98.6929 27.1395 98.1947 26.9072C97.7142 26.6749 97.127 26.5588 96.433 26.5588C95.7568 26.5588 95.1785 26.6749 94.6981 26.9072C94.2176 27.1395 93.8173 27.4612 93.497 27.8722C93.1767 28.2832 92.9364 28.7746 92.7763 29.3464C92.6339 29.9003 92.5628 30.499 92.5628 31.1423C92.5628 31.7856 92.6339 32.3842 92.7763 32.9381C92.9364 33.4921 93.1678 33.9746 93.4703 34.3856C93.7906 34.7966 94.1909 35.1271 94.6714 35.3773C95.1696 35.6096 95.7568 35.7258 96.433 35.7258Z" fill="white"/>
<path d="M112.197 23.8247C113.318 23.8247 114.305 24.0034 115.159 24.3608C116.014 24.7182 116.734 25.2186 117.321 25.8619C117.926 26.4873 118.38 27.2467 118.683 28.1402C118.985 29.0337 119.136 30.0254 119.136 31.1155C119.136 32.2234 118.985 33.2241 118.683 34.1175C118.398 34.9931 117.962 35.7526 117.375 36.3959C116.788 37.0392 116.058 37.5306 115.186 37.8701C114.332 38.2096 113.335 38.3794 112.197 38.3794C111.076 38.3794 110.088 38.2096 109.234 37.8701C108.38 37.5127 107.659 37.0213 107.072 36.3959C106.502 35.7526 106.066 34.9842 105.764 34.0907C105.479 33.1972 105.337 32.2055 105.337 31.1155C105.337 30.0254 105.479 29.0337 105.764 28.1402C106.066 27.2467 106.511 26.4873 107.099 25.8619C107.686 25.2186 108.406 24.7182 109.261 24.3608C110.115 24.0034 111.093 23.8247 112.197 23.8247ZM112.197 35.7258C112.891 35.7258 113.478 35.6096 113.958 35.3773C114.457 35.1271 114.857 34.7966 115.159 34.3856C115.48 33.9746 115.711 33.4921 115.853 32.9381C116.014 32.3842 116.094 31.7856 116.094 31.1423C116.094 30.499 116.014 29.9003 115.853 29.3464C115.711 28.7746 115.48 28.2832 115.159 27.8722C114.857 27.4612 114.457 27.1395 113.958 26.9072C113.478 26.6749 112.891 26.5588 112.197 26.5588C111.52 26.5588 110.942 26.6749 110.462 26.9072C109.981 27.1395 109.581 27.4612 109.261 27.8722C108.94 28.2832 108.7 28.7746 108.54 29.3464C108.398 29.9003 108.326 30.499 108.326 31.1423C108.326 31.7856 108.398 32.3842 108.54 32.9381C108.7 33.4921 108.931 33.9746 109.234 34.3856C109.554 34.7966 109.955 35.1271 110.435 35.3773C110.933 35.6096 111.52 35.7258 112.197 35.7258Z" fill="white"/>
<path d="M126.786 26.3711C126.519 26.3711 126.234 26.389 125.932 26.4247C125.647 26.4605 125.371 26.5409 125.104 26.666C124.855 26.7732 124.642 26.934 124.464 27.1485C124.304 27.3629 124.223 27.6399 124.223 27.9794C124.223 28.3546 124.348 28.6495 124.597 28.8639C124.864 29.0784 125.175 29.257 125.531 29.4C125.887 29.5251 126.261 29.6323 126.652 29.7216C127.062 29.7931 127.409 29.8557 127.693 29.9093C128.458 30.0701 129.144 30.2399 129.749 30.4186C130.371 30.5973 130.896 30.8385 131.323 31.1423C131.75 31.4282 132.08 31.8034 132.311 32.268C132.56 32.7326 132.685 33.3402 132.685 34.0907C132.685 34.8948 132.516 35.5739 132.178 36.1278C131.857 36.6818 131.43 37.1285 130.896 37.468C130.38 37.7897 129.784 38.022 129.108 38.1649C128.45 38.3079 127.765 38.3794 127.053 38.3794C126.341 38.3794 125.638 38.3079 124.944 38.1649C124.25 38.022 123.61 37.7808 123.022 37.4412C122.453 37.1017 121.972 36.655 121.581 36.101C121.207 35.5292 120.976 34.8412 120.887 34.0371H123.957C124.028 34.3945 124.179 34.6893 124.41 34.9216C124.642 35.154 124.909 35.3416 125.211 35.4845C125.531 35.6275 125.861 35.7258 126.199 35.7794C126.537 35.833 126.848 35.8598 127.133 35.8598C127.346 35.8598 127.604 35.8419 127.907 35.8062C128.227 35.7704 128.521 35.69 128.788 35.5649C129.055 35.4399 129.277 35.279 129.455 35.0825C129.651 34.868 129.749 34.6 129.749 34.2783C129.749 33.9746 129.677 33.7244 129.535 33.5278C129.393 33.3134 129.197 33.1347 128.948 32.9918C128.717 32.8488 128.432 32.7416 128.094 32.6701C127.756 32.5808 127.4 32.4914 127.026 32.4021C126.439 32.2948 125.807 32.1608 125.131 32C124.473 31.8392 123.85 31.6337 123.263 31.3835C122.693 31.1155 122.222 30.7223 121.848 30.2041C121.474 29.6859 121.287 29.0247 121.287 28.2206C121.287 27.3629 121.456 26.657 121.795 26.1031C122.133 25.5491 122.569 25.1024 123.102 24.7629C123.636 24.4055 124.232 24.1643 124.891 24.0392C125.549 23.8962 126.199 23.8247 126.839 23.8247C128.387 23.8247 129.651 24.1821 130.629 24.8969C131.626 25.6117 132.169 26.6481 132.258 28.0062H129.402C129.313 27.4344 129.019 27.0323 128.521 26.8C128.04 26.5498 127.462 26.4069 126.786 26.3711Z" fill="white"/>
<path d="M138.957 24.066H142.506V26.7196H138.957V33.1794C138.957 33.9835 139.099 34.5821 139.384 34.9753C139.668 35.3684 140.211 35.5649 141.012 35.5649H142.4V38.1918H140.745C139.019 38.1918 137.782 37.8344 137.035 37.1196C136.305 36.4048 135.94 35.2344 135.94 33.6082V26.7196H133.725V24.066H135.94V20.0722H138.957V24.066Z" fill="white"/>
<path d="M151.66 21.7608C151.251 21.7608 150.833 21.7966 150.406 21.868C149.979 21.9395 149.587 22.0735 149.231 22.2701C148.876 22.4488 148.582 22.7079 148.351 23.0474C148.119 23.3691 148.004 23.7801 148.004 24.2804C148.004 25.0309 148.253 25.6027 148.751 25.9959C149.249 26.3711 149.845 26.657 150.539 26.8536C151.038 26.9966 151.536 27.1306 152.034 27.2557C152.55 27.3808 153.022 27.488 153.449 27.5773C154.196 27.7381 154.899 27.9347 155.557 28.167C156.234 28.3993 156.821 28.712 157.319 29.1052C157.817 29.4804 158.209 29.9629 158.493 30.5526C158.796 31.1244 158.947 31.8392 158.947 32.6969C158.947 33.7155 158.76 34.5821 158.387 35.2969C158.031 36.0117 157.541 36.6014 156.919 37.066C156.296 37.5306 155.566 37.8701 154.73 38.0845C153.894 38.299 152.995 38.4062 152.034 38.4062C151.055 38.4062 150.121 38.3079 149.231 38.1113C148.36 37.8969 147.577 37.5663 146.883 37.1196C146.189 36.655 145.61 36.0653 145.148 35.3505C144.685 34.6357 144.391 33.778 144.267 32.7773H147.47C147.612 33.3134 147.844 33.7601 148.164 34.1175C148.484 34.4749 148.849 34.7608 149.258 34.9753C149.685 35.1897 150.139 35.3416 150.619 35.4309C151.1 35.5203 151.571 35.5649 152.034 35.5649C152.532 35.5649 153.013 35.5292 153.475 35.4577C153.938 35.3684 154.338 35.2254 154.677 35.0289C155.015 34.8323 155.29 34.5732 155.504 34.2515C155.718 33.9299 155.824 33.51 155.824 32.9918C155.824 32.277 155.637 31.7588 155.264 31.4371C154.89 31.0976 154.392 30.8474 153.769 30.6866C152.915 30.4364 152.034 30.222 151.127 30.0433C150.237 29.8467 149.392 29.5966 148.591 29.2928C148.057 29.0962 147.568 28.8639 147.123 28.5959C146.678 28.3278 146.287 28.0062 145.948 27.6309C145.61 27.2557 145.343 26.8179 145.148 26.3175C144.97 25.7993 144.881 25.2007 144.881 24.5216C144.881 23.4852 145.077 22.6186 145.468 21.9216C145.859 21.2069 146.367 20.6351 146.989 20.2062C147.63 19.7773 148.351 19.4735 149.151 19.2948C149.952 19.0983 150.771 19 151.607 19C152.497 19 153.342 19.1072 154.143 19.3216C154.943 19.5182 155.655 19.8309 156.278 20.2598C156.901 20.6887 157.399 21.2426 157.773 21.9216C158.164 22.6007 158.396 23.4227 158.467 24.3876H155.424C155.353 23.9052 155.201 23.5031 154.97 23.1814C154.757 22.8598 154.481 22.6007 154.143 22.4041C153.822 22.1897 153.449 22.0378 153.022 21.9485C152.595 21.8412 152.141 21.7787 151.66 21.7608Z" fill="white"/>
<path d="M167.923 35.7258C169.097 35.7258 169.934 35.3952 170.432 34.734C170.93 34.0729 171.179 33.1347 171.179 31.9196V24.066H174.195V32.0268C174.195 33.2062 174.035 34.2069 173.715 35.0289C173.395 35.833 172.959 36.4852 172.407 36.9856C171.855 37.468 171.197 37.8254 170.432 38.0577C169.684 38.2722 168.848 38.3794 167.923 38.3794C165.965 38.3794 164.435 37.8701 163.332 36.8515C162.246 35.833 161.704 34.2247 161.704 32.0268V24.066H164.72V31.9196C164.72 33.1347 164.978 34.0729 165.494 34.734C166.028 35.3773 166.837 35.7079 167.923 35.7258Z" fill="white"/>
<path d="M177.182 43.6866V24.066H180.065L180.225 26.0763C180.776 25.3258 181.452 24.7629 182.253 24.3876C183.054 24.0124 183.917 23.8247 184.842 23.8247C185.803 23.8247 186.666 24.0034 187.431 24.3608C188.197 24.7003 188.846 25.1828 189.38 25.8082C189.931 26.4337 190.341 27.1931 190.608 28.0866C190.892 28.9622 191.035 29.9629 191.035 31.0887C191.035 32.143 190.901 33.1168 190.634 34.0103C190.367 34.9038 189.967 35.6811 189.433 36.3423C188.917 36.9856 188.268 37.4859 187.485 37.8433C186.72 38.2007 185.821 38.3794 184.789 38.3794C183.899 38.3794 183.054 38.2454 182.253 37.9773C181.47 37.6914 180.794 37.2536 180.225 36.6639V43.6866H177.182ZM184.202 35.7258C184.86 35.7258 185.429 35.6096 185.91 35.3773C186.39 35.1271 186.782 34.7966 187.084 34.3856C187.405 33.9746 187.636 33.4921 187.778 32.9381C187.938 32.3842 188.019 31.7856 188.019 31.1423C188.019 30.499 187.938 29.9003 187.778 29.3464C187.636 28.7746 187.405 28.2832 187.084 27.8722C186.782 27.4612 186.381 27.1395 185.883 26.9072C185.403 26.6749 184.824 26.5588 184.148 26.5588C183.49 26.5588 182.92 26.6838 182.44 26.934C181.96 27.1842 181.55 27.5148 181.212 27.9258C180.874 28.3368 180.616 28.8282 180.438 29.4C180.278 29.954 180.198 30.5258 180.198 31.1155C180.198 32.4199 180.536 33.51 181.212 34.3856C181.888 35.2612 182.885 35.7079 184.202 35.7258Z" fill="white"/>
<path d="M193.545 43.6866V24.066H196.428L196.588 26.0763C197.139 25.3258 197.816 24.7629 198.616 24.3876C199.417 24.0124 200.28 23.8247 201.205 23.8247C202.166 23.8247 203.029 24.0034 203.794 24.3608C204.56 24.7003 205.209 25.1828 205.743 25.8082C206.295 26.4337 206.704 27.1931 206.971 28.0866C207.255 28.9622 207.398 29.9629 207.398 31.0887C207.398 32.143 207.264 33.1168 206.997 34.0103C206.731 34.9038 206.33 35.6811 205.796 36.3423C205.28 36.9856 204.631 37.4859 203.848 37.8433C203.083 38.2007 202.184 38.3794 201.152 38.3794C200.262 38.3794 199.417 38.2454 198.616 37.9773C197.833 37.6914 197.157 37.2536 196.588 36.6639V43.6866H193.545ZM200.565 35.7258C201.223 35.7258 201.793 35.6096 202.273 35.3773C202.754 35.1271 203.145 34.7966 203.447 34.3856C203.768 33.9746 203.999 33.4921 204.141 32.9381C204.302 32.3842 204.382 31.7856 204.382 31.1423C204.382 30.499 204.302 29.9003 204.141 29.3464C203.999 28.7746 203.768 28.2832 203.447 27.8722C203.145 27.4612 202.745 27.1395 202.246 26.9072C201.766 26.6749 201.188 26.5588 200.511 26.5588C199.853 26.5588 199.284 26.6838 198.803 26.934C198.323 27.1842 197.913 27.5148 197.575 27.9258C197.237 28.3368 196.979 28.8282 196.801 29.4C196.641 29.954 196.561 30.5258 196.561 31.1155C196.561 32.4199 196.899 33.51 197.575 34.3856C198.252 35.2612 199.248 35.7079 200.565 35.7258Z" fill="white"/>
<path d="M209.908 38.1918V19.2412H212.951V38.1918H209.908Z" fill="white"/>
<path d="M229 24.066V35.9402C229 36.7443 228.982 37.5663 228.947 38.4062C228.929 39.246 228.786 40.068 228.52 40.8722C228.11 42.1588 227.372 43.1684 226.304 43.901C225.236 44.6337 223.804 45 222.007 45C220.939 45 219.907 44.857 218.911 44.5711C217.932 44.2852 217.007 43.8117 216.135 43.1505C216.33 42.7395 216.517 42.3107 216.695 41.8639C216.891 41.435 217.087 41.0062 217.282 40.5773C217.87 41.0419 218.537 41.435 219.284 41.7567C220.049 42.0783 220.921 42.2392 221.9 42.2392C222.843 42.2392 223.582 42.0783 224.115 41.7567C224.649 41.435 225.05 40.9973 225.317 40.4433C225.601 39.9072 225.779 39.2818 225.85 38.567C225.939 37.8701 225.984 37.1553 225.984 36.4227C225.486 37.1375 224.863 37.6467 224.115 37.9505C223.386 38.2543 222.558 38.4062 221.633 38.4062C220.583 38.4062 219.685 38.2454 218.937 37.9237C218.19 37.6021 217.603 37.1553 217.176 36.5835C216.749 36.0117 216.446 35.3326 216.268 34.5464C216.09 33.7601 216.001 32.9024 216.001 31.9732V24.066H219.017V31.3835C219.017 31.9553 219.053 32.5093 219.124 33.0454C219.213 33.5636 219.373 34.0282 219.605 34.4392C219.854 34.8323 220.192 35.154 220.619 35.4041C221.046 35.6364 221.606 35.7526 222.3 35.7526C223.012 35.7526 223.599 35.6096 224.062 35.3237C224.543 35.0378 224.916 34.6715 225.183 34.2247C225.468 33.7601 225.664 33.233 225.77 32.6433C225.895 32.0536 225.957 31.446 225.957 30.8206V24.066H229Z" fill="white"/>
<defs>
<clipPath id="clip0_508_24">
<rect width="29" height="34" fill="white" transform="translate(16 13)"/>
</clipPath>
</defs>
</svg>
