<svg width="185" height="30" viewBox="0 0 185 30" fill="none" xmlns="http://www.w3.org/2000/svg">
<path fill-rule="evenodd" clip-rule="evenodd" d="M29.0924 1.22443C28.0487 1.22443 27.0948 1.81402 26.6281 2.74742L24.6345 6.73463H37.9466C38.1599 6.73463 38.2986 6.95917 38.2033 7.14996L37.192 9.17244C37.0948 9.3669 36.8961 9.48973 36.6786 9.48973H23.2579V9.48801L21.8794 12.2448H28.3037C28.517 12.2448 28.6558 12.4694 28.5604 12.6602L27.5492 14.6826C27.4519 14.8771 27.2532 14.9999 27.0358 14.9999H20.5018H17.7477H11.1849C10.1413 14.9999 9.18732 15.5895 8.72063 16.5229L3.59118 26.7818C3.13321 27.6977 3.79925 28.7754 4.8233 28.7754H35.3304C36.374 28.7754 37.3279 28.1859 37.7947 27.2524L39.7882 23.2652H25.1606C24.9336 23.2652 24.7965 23.0143 24.919 22.8233L26.2339 20.7742C26.3394 20.6097 26.5215 20.5101 26.717 20.5101H41.1658L42.5433 17.755H33.3896C33.1705 17.755 33.0323 17.5195 33.139 17.3281L34.2746 15.2942C34.376 15.1124 34.5677 14.9999 34.7757 14.9999H43.9209H45.2987H53.2378C54.2815 14.9999 55.2354 14.4103 55.7022 13.4769L60.8316 3.21809C61.2895 2.30213 60.6235 1.22443 59.5995 1.22443H29.0924Z" fill="white"/>
<path d="M78.4835 24.4868L77.68 22.9439H92.53V26.4796H74.8835V23.1368L88.5764 7.25818L89.3478 8.80104H75.1407V5.26533H92.1443V8.60818L78.4835 24.4868ZM101.632 26.801C99.9396 26.801 98.461 26.4689 97.1968 25.8046C95.9539 25.1403 94.9896 24.1868 94.3038 22.9439C93.6181 21.701 93.2752 20.2011 93.2752 18.4439C93.2752 16.6867 93.6181 15.1868 94.3038 13.9439C94.9896 12.701 95.9431 11.7475 97.1645 11.0832C98.4074 10.4189 99.8217 10.0868 101.407 10.0868C103.036 10.0868 104.418 10.4189 105.554 11.0832C106.69 11.726 107.557 12.6154 108.157 13.751C108.757 14.8654 109.057 16.1403 109.057 17.576C109.057 18.0046 109.047 18.4118 109.025 18.7975C109.004 19.1832 108.972 19.5261 108.929 19.826H96.1038V16.7725H107L104.879 17.5439C104.879 16.1939 104.568 15.1546 103.947 14.426C103.347 13.6974 102.49 13.3332 101.375 13.3332C100.561 13.3332 99.8538 13.526 99.2538 13.9118C98.6752 14.2975 98.236 14.876 97.9361 15.6475C97.636 16.3974 97.4861 17.351 97.4861 18.5082C97.4861 19.6439 97.6468 20.5868 97.9682 21.3368C98.311 22.0654 98.7825 22.6118 99.3825 22.976C100.004 23.3403 100.743 23.5225 101.6 23.5225C102.543 23.5225 103.304 23.3403 103.882 22.976C104.461 22.6118 104.911 22.1082 105.232 21.4653L108.736 22.8153C108.393 23.651 107.868 24.3689 107.161 24.9689C106.475 25.5689 105.65 26.0296 104.686 26.351C103.743 26.651 102.725 26.801 101.632 26.801ZM111.343 26.4796V10.4082H115.296L115.553 15.2296L115.007 14.7153C115.264 13.6653 115.672 12.7974 116.228 12.1118C116.785 11.4261 117.46 10.9225 118.253 10.601C119.067 10.2581 119.957 10.0868 120.921 10.0868C122.036 10.0868 123.021 10.3011 123.878 10.7296C124.757 11.1581 125.443 11.8118 125.936 12.6903C126.45 13.5475 126.707 14.6296 126.707 15.9368V26.4796H122.303V17.1903C122.303 15.8189 122.036 14.876 121.5 14.3618C120.964 13.826 120.268 13.5582 119.411 13.5582C118.81 13.5582 118.221 13.7082 117.643 14.0082C117.086 14.2868 116.624 14.7475 116.261 15.3903C115.917 16.0332 115.746 16.8904 115.746 17.9618V26.4796H111.343ZM135.872 26.801C134.544 26.801 133.355 26.4689 132.304 25.8046C131.276 25.1403 130.462 24.1868 129.862 22.9439C129.283 21.701 128.994 20.2118 128.994 18.476C128.994 16.6975 129.305 15.1868 129.926 13.9439C130.547 12.6796 131.383 11.726 132.433 11.0832C133.504 10.4189 134.705 10.0868 136.033 10.0868C137.447 10.0868 138.615 10.4939 139.537 11.3082C140.458 12.1224 141.058 13.1725 141.337 14.4582L140.919 14.9725V3.3689H145.322V26.4796H141.369L141.079 21.5939L141.626 21.851C141.476 22.8581 141.133 23.7368 140.597 24.4868C140.061 25.2154 139.386 25.7831 138.572 26.1903C137.758 26.5975 136.858 26.801 135.872 26.801ZM137.158 23.426C137.929 23.426 138.594 23.2332 139.151 22.8475C139.708 22.4403 140.137 21.851 140.437 21.0796C140.758 20.3082 140.919 19.3867 140.919 18.3153C140.919 17.2868 140.768 16.4189 140.469 15.7118C140.169 14.9831 139.74 14.426 139.183 14.0403C138.626 13.6546 137.972 13.4618 137.222 13.4618C136.023 13.4618 135.079 13.8903 134.394 14.7475C133.729 15.5832 133.397 16.8153 133.397 18.4439C133.397 20.0725 133.729 21.3153 134.394 22.1725C135.058 23.0082 135.979 23.426 137.158 23.426ZM155.96 26.801C154.267 26.801 152.789 26.4689 151.525 25.8046C150.281 25.1403 149.317 24.1868 148.632 22.9439C147.945 21.701 147.603 20.2011 147.603 18.4439C147.603 16.6867 147.945 15.1868 148.632 13.9439C149.317 12.701 150.271 11.7475 151.493 11.0832C152.735 10.4189 154.149 10.0868 155.735 10.0868C157.363 10.0868 158.745 10.4189 159.882 11.0832C161.017 11.726 161.885 12.6154 162.485 13.751C163.085 14.8654 163.385 16.1403 163.385 17.576C163.385 18.0046 163.374 18.4118 163.353 18.7975C163.332 19.1832 163.299 19.5261 163.257 19.826H150.432V16.7725H161.328L159.207 17.5439C159.207 16.1939 158.896 15.1546 158.275 14.426C157.674 13.6974 156.817 13.3332 155.703 13.3332C154.888 13.3332 154.181 13.526 153.582 13.9118C153.003 14.2975 152.564 14.876 152.264 15.6475C151.963 16.3974 151.814 17.351 151.814 18.5082C151.814 19.6439 151.975 20.5868 152.296 21.3368C152.638 22.0654 153.11 22.6118 153.71 22.976C154.332 23.3403 155.071 23.5225 155.928 23.5225C156.871 23.5225 157.632 23.3403 158.21 22.976C158.789 22.6118 159.239 22.1082 159.56 21.4653L163.064 22.8153C162.721 23.651 162.196 24.3689 161.489 24.9689C160.803 25.5689 159.978 26.0296 159.014 26.351C158.07 26.651 157.053 26.801 155.96 26.801ZM165.671 26.4796V10.4082H169.625L169.882 15.2296L169.335 14.7153C169.592 13.6653 169.999 12.7974 170.557 12.1118C171.114 11.4261 171.789 10.9225 172.582 10.601C173.396 10.2581 174.285 10.0868 175.25 10.0868C176.363 10.0868 177.349 10.3011 178.207 10.7296C179.085 11.1581 179.77 11.8118 180.264 12.6903C180.778 13.5475 181.035 14.6296 181.035 15.9368V26.4796H176.632V17.1903C176.632 15.8189 176.363 14.876 175.828 14.3618C175.292 13.826 174.595 13.5582 173.739 13.5582C173.139 13.5582 172.55 13.7082 171.971 14.0082C171.413 14.2868 170.953 14.7475 170.589 15.3903C170.246 16.0332 170.075 16.8904 170.075 17.9618V26.4796H165.671Z" fill="white"/>
</svg>
