<svg width="70" height="70" viewBox="0 0 70 70" fill="none" xmlns="http://www.w3.org/2000/svg">
<path d="M53.4274 18.7796C52.9595 18.2085 52.5554 17.5879 52.2221 16.929C51.974 16.1917 51.8068 15.4296 51.7234 14.6562C51.63 12.7266 50.9035 10.8815 49.6562 9.4062C48.1798 8.16169 46.3349 7.43758 44.4062 7.34558C43.6287 7.26369 42.8628 7.09568 42.1225 6.84464C41.4628 6.51235 40.8415 6.10891 40.2696 5.64151C38.816 4.31031 36.9636 3.49602 35 3.32495C33.0324 3.49089 31.1749 4.30309 29.7171 5.63495C29.1462 6.10254 28.5256 6.506 27.8665 6.83808C27.1262 7.08912 26.3602 7.25712 25.5828 7.33901C23.6569 7.43443 21.8159 8.16084 20.3437 9.4062C19.0995 10.8828 18.3754 12.7275 18.2831 14.6562C18.2006 15.4319 18.0333 16.1963 17.7843 16.9356C17.452 17.5957 17.0478 18.217 16.579 18.7884C15.2469 20.2432 14.4326 22.0972 14.2625 24.0625C14.4289 26.0299 15.241 27.8872 16.5725 29.3453C17.0404 29.9164 17.4445 30.537 17.7778 31.1959C18.0259 31.9332 18.1931 32.6953 18.2765 33.4687C18.3699 35.3983 19.0964 37.2434 20.3437 38.7187C20.7919 39.1547 21.3093 39.5132 21.875 39.7796V63.4375C21.875 63.8246 21.9779 64.2049 22.173 64.5393C22.3681 64.8737 22.6484 65.1504 22.9854 65.341C23.3224 65.5316 23.704 65.6294 24.0911 65.6243C24.4783 65.6193 24.8571 65.5115 25.189 65.3121L35 59.4256L44.8109 65.3121C45.1428 65.5115 45.5216 65.6193 45.9088 65.6243C46.2959 65.6294 46.6775 65.5316 47.0145 65.341C47.3515 65.1504 47.6319 64.8737 47.8269 64.5393C48.022 64.2049 48.1249 63.8246 48.125 63.4375V39.7862C48.6901 39.5198 49.2074 39.1621 49.6562 38.7275C50.9004 37.2509 51.6245 35.4061 51.7168 33.4775C51.7993 32.7017 51.9666 31.9374 52.2156 31.1981C52.5479 30.538 52.9521 29.9166 53.4209 29.3453C54.7547 27.8881 55.5692 26.0307 55.7374 24.0625C55.571 22.095 54.7589 20.2377 53.4274 18.7796ZM36.1265 55.0003C35.7863 54.7959 35.3969 54.6879 35 54.6879C34.603 54.6879 34.2136 54.7959 33.8734 55.0003L26.25 59.5743V40.9062C26.8005 40.9786 27.3418 41.1099 27.8643 41.2978C28.524 41.63 29.1453 42.0335 29.7171 42.5009C31.1767 43.8284 33.0338 44.6366 35 44.7999C36.9676 44.634 38.825 43.8218 40.2828 42.4899C40.8537 42.0224 41.4743 41.6189 42.1334 41.2868C42.657 41.1024 43.199 40.9748 43.75 40.9062V59.5853L36.1265 55.0003ZM49.9231 26.7246C49.2258 27.5809 48.6379 28.5208 48.1731 29.5225C47.7774 30.5864 47.5144 31.6951 47.3899 32.8234C47.3541 33.8151 47.069 34.7819 46.5609 35.6343C45.7088 36.1391 44.744 36.4226 43.7543 36.459C42.6247 36.5855 41.5148 36.8492 40.449 37.2443C39.4495 37.7093 38.5118 38.2972 37.6578 38.9943C36.9125 39.6958 35.9959 40.1892 35 40.4249C34.0009 40.1873 33.082 39.6908 32.3356 38.9856C31.4811 38.288 30.5427 37.7001 29.5421 37.2356C28.4764 36.8402 27.3665 36.5765 26.2368 36.4503C25.2472 36.4119 24.2826 36.1277 23.4303 35.6234C22.924 34.771 22.6397 33.8053 22.6034 32.8146C22.479 31.6856 22.2159 30.5762 21.8203 29.5115C21.3548 28.5109 20.767 27.5718 20.0703 26.7159C19.3688 25.972 18.8747 25.057 18.6375 24.0625C18.8752 23.0641 19.3716 22.1459 20.0768 21.4003C20.7741 20.544 21.362 19.6041 21.8268 18.6025C22.2194 17.5417 22.4802 16.4368 22.6034 15.3125C22.6392 14.3207 22.9243 13.354 23.4325 12.5015C24.2867 11.9912 25.2556 11.7038 26.25 11.6659C27.3795 11.5394 28.4895 11.2757 29.5553 10.8806C30.5548 10.4156 31.4925 9.82769 32.3465 9.13058C33.0906 8.42973 34.0055 7.93642 35 7.69995C35.999 7.93764 36.9179 8.43405 37.6643 9.13933C38.5188 9.83693 39.4573 10.4248 40.4578 10.8893C41.5235 11.2847 42.6334 11.5484 43.7631 11.6746C44.7527 11.713 45.7173 11.9972 46.5696 12.5015C47.0762 13.3545 47.3605 14.321 47.3965 15.3125C47.5209 16.4415 47.784 17.5509 48.1796 18.6156C48.6451 19.6162 49.2329 20.5553 49.9296 21.4112C50.6308 22.1545 51.1248 23.0687 51.3624 24.0625C51.1247 25.0608 50.6283 25.979 49.9231 26.7246Z" fill="#FF65FF"/>
<path d="M35 15.3125C33.2694 15.3125 31.5777 15.8257 30.1388 16.7871C28.6998 17.7486 27.5783 19.1152 26.9161 20.714C26.2538 22.3129 26.0805 24.0722 26.4181 25.7695C26.7558 27.4669 27.5891 29.026 28.8128 30.2497C30.0365 31.4734 31.5956 32.3068 33.293 32.6444C34.9903 32.982 36.7496 32.8087 38.3485 32.1464C39.9473 31.4842 41.3139 30.3627 42.2754 28.9237C43.2368 27.4848 43.75 25.7931 43.75 24.0625C43.75 21.7419 42.8281 19.5163 41.1872 17.8753C39.5462 16.2344 37.3206 15.3125 35 15.3125ZM35 28.4375C34.1347 28.4375 33.2889 28.1809 32.5694 27.7002C31.8499 27.2194 31.2892 26.5362 30.958 25.7367C30.6269 24.9373 30.5403 24.0576 30.7091 23.209C30.8779 22.3603 31.2946 21.5808 31.9064 20.9689C32.5183 20.3571 33.2978 19.9404 34.1465 19.7716C34.9952 19.6028 35.8748 19.6894 36.6742 20.0205C37.4737 20.3517 38.157 20.9124 38.6377 21.6319C39.1184 22.3513 39.375 23.1972 39.375 24.0625C39.375 25.2228 38.9141 26.3356 38.0936 27.1561C37.2731 27.9766 36.1603 28.4375 35 28.4375Z" fill="#FF65FF"/>
</svg>
